<?xml version="1.0" encoding="UTF-8"?>
<svg viewBox="0 0 87 87" version="1.1" xmlns="http://www.w3.org/2000/svg" xmlns:xlink="http://www.w3.org/1999/xlink">
    <g id="Wireframes" stroke="none" stroke-width="1" fill="none" fill-rule="evenodd">
        <g id="Mobile" transform="translate(-118.000000, -1508.000000)" fill="#000000">
            <g id="Why-Us-Copy" transform="translate(0.000000, 1386.000000)">
                <g id="Container-1" transform="translate(10.000000, 117.000000)">
                    <g id="icon-/-videocall" transform="translate(108.000000, 0.000000)">
                        <g transform="translate(0.000000, 5.097656)">
                            <path d="M56.7745656,74.4016849 L52.345227,69.2089256 L49.7963483,69.2089256 L49.7963483,64.1012935 L47.2425323,64.1012935 L47.2425323,69.2089256 L39.5841487,69.2089256 L39.5841487,59.0003014 L47.2425323,59.0003014 L47.2425323,61.5473072 L49.7963483,61.5473072 L49.7963483,59.0003014 L79.1674462,59.0003014 L79.1674462,13.1494286 L60.744728,13.1494286 L56.145135,5.33509198 L48.5458297,5.33509198 C48.5458297,5.32385519 48.546681,5.31278865 48.546681,5.30155186 C48.546681,2.47192368 46.2446712,0.16974364 43.4148728,0.16974364 C40.5850744,0.16974364 38.2830646,2.47175342 38.2830646,5.30155186 C38.2830646,5.31278865 38.2839159,5.32385519 38.2839159,5.33509198 L30.6989119,5.33509198 L26.2695734,13.1494286 L7.66212916,13.1494286 L7.66212916,59.0003014 L37.0303327,59.0003014 L37.0303327,69.2089256 L34.4843483,69.2089256 L30.0550098,74.4016849 L0,74.4016849 L0,76.955501 L87,76.955501 L87,74.4016849 L56.7745656,74.4016849 Z M43.4148728,2.72355969 C44.8363268,2.72355969 45.992865,3.87992759 45.992865,5.30155186 C45.992865,6.72300587 44.8364971,7.87937378 43.4148728,7.87937378 C41.9932485,7.87937378 40.8368806,6.72300587 40.8368806,5.30155186 C40.8368806,3.88009785 41.9934188,2.72355969 43.4148728,2.72355969 Z M32.1869354,7.88890802 L38.9858748,7.88890802 C39.8776673,9.40927984 41.528454,10.4331898 43.4148728,10.4331898 C45.3012916,10.4331898 46.9520783,9.40927984 47.8438708,7.88890802 L54.6850333,7.88890802 L57.7814501,13.1494286 L29.2052701,13.1494286 L32.1869354,7.88890802 Z M76.6138004,15.7032446 L76.6138004,18.164272 L74.0606654,18.164272 L74.0606654,20.7180881 L76.6138004,20.7180881 L76.6138004,48.8529687 L51.0724051,48.8529687 L51.0724051,43.8253562 L44.1406673,39.3134442 C44.438272,38.5518963 44.602908,37.7268434 44.602908,36.8643346 L44.602908,30.1607378 C46.1222583,29.1894364 47.1282916,27.5165166 47.1282916,25.61818 L47.1282916,23.3231507 L32.0626497,23.3015284 C29.1662818,23.3015284 26.8097906,25.5972387 26.8097906,28.4190352 L26.8097906,31.948409 C26.1306458,34.4584697 27.5681037,37.1622798 30.1457554,37.8611742 L30.9313092,39.3379609 L22.9807691,43.7674697 L22.9807691,48.8529687 L10.2159452,48.8529687 L10.2159452,20.7180881 L66.3992172,20.7180881 L66.3992172,18.164272 L10.2159452,18.164272 L10.2159452,15.7032446 L76.6138004,15.7032446 Z M41.5505871,28.49582 L41.5505871,28.4961605 L31.3569452,28.4973523 C30.6711605,28.5307221 29.6984971,28.749499 29.3634364,28.9955166 C29.3634364,26.7728454 30.5741155,25.8555147 32.0606067,25.8555147 L44.5625577,25.8735616 C44.4263542,27.3409843 43.1274834,28.49582 41.5505871,28.49582 L41.5505871,28.49582 Z M31.4670998,31.049636 L42.049092,31.049636 L42.049092,36.8645049 C42.049092,41.3873131 35.6333953,42.7387926 33.5600372,38.8418395 L32.6961663,37.2181233 L32.6968474,35.4764207 L31.4194286,35.4764207 C27.8791585,34.9876204 28.8155577,31.049636 31.4670998,31.049636 L31.4670998,31.049636 Z M32.3309706,41.4816341 C33.6472074,42.9085362 35.5290294,43.7504442 37.5567593,43.7504442 C39.6279041,43.7504442 41.4930411,42.872272 42.7833992,41.4772074 L48.518589,45.2102055 L48.518589,48.8529687 L25.5345851,48.8529687 L25.5345851,45.268092 L32.3309706,41.4816341 Z M10.2159452,51.406955 L76.6136301,51.406955 L76.6136301,56.4464853 L10.2159452,56.4464853 L10.2159452,51.406955 Z M35.6626791,71.7627417 L51.1668963,71.7627417 L53.4178297,74.4016849 L33.4117456,74.4016849 L35.6626791,71.7627417 Z" id="Shape" fill-rule="nonzero"></path>
                            <polygon id="Path" fill-rule="nonzero" points="68.9530333 18.164272 71.5068493 18.164272 71.5068493 20.7180881 68.9530333 20.7180881"></polygon>
                            <polygon id="Path" fill-rule="nonzero" points="12.7690802 23.2400665 15.3228963 23.2400665 15.3228963 25.7938826 12.7690802 25.7938826"></polygon>
                            <polygon id="Path" fill-rule="nonzero" points="12.7690802 28.3253953 15.3228963 28.3253953 15.3228963 33.4553307 12.7690802 33.4553307"></polygon>
                            <path d="M63.9596419,29.1135029 C61.5352192,29.1135029 59.5520959,31.0356751 59.4523268,33.436092 L53.7152642,33.436092 L53.7152642,46.2210059 L74.0163992,46.2210059 L74.0163992,33.436092 L68.4669569,33.436092 C68.3671879,31.0358454 66.3840646,29.1135029 63.9596419,29.1135029 Z M63.9596419,31.667319 C65.0393953,31.667319 65.917908,32.5458317 65.917908,33.6255851 C65.917908,34.7053386 65.0393953,35.5838513 63.9596419,35.5838513 C62.8798885,35.5838513 62.0013757,34.7053386 62.0013757,33.6255851 C62.0013757,32.5458317 62.8798885,31.667319 63.9596419,31.667319 Z M66.3992172,43.6671898 L61.2915851,43.6671898 L61.2915851,40.4280998 L63.9477241,39.5696771 L66.3992172,40.4107339 L66.3992172,43.6671898 Z M56.2690802,35.989908 L60.1185323,35.989908 C60.5290157,36.654411 61.1066888,37.2048434 61.7928141,37.5821272 L58.7377691,38.5696027 L58.7377691,43.6671898 L56.2690802,43.6671898 L56.2690802,35.989908 Z M71.4625832,43.6671898 L68.9530333,43.6671898 L68.9530333,38.5869687 L66.0869706,37.6037495 C66.7904618,37.225955 67.3826067,36.66718 67.8009217,35.989908 L71.4627534,35.989908 L71.4627534,43.6671898 L71.4625832,43.6671898 Z" id="Shape" fill-rule="nonzero"></path>
                        </g>
                    </g>
                </g>
            </g>
        </g>
    </g>
</svg>