<?xml version="1.0" encoding="UTF-8"?>
<svg viewBox="0 0 87 87" version="1.1" xmlns="http://www.w3.org/2000/svg" xmlns:xlink="http://www.w3.org/1999/xlink">
    <g id="Wireframes" stroke="none" stroke-width="1" fill="none" fill-rule="evenodd">
        <g id="Mobile" transform="translate(-123.000000, -1767.000000)" fill="#000000">
            <g id="Why-Us-Copy" transform="translate(0.000000, 1386.000000)">
                <g id="Container-2" transform="translate(10.000000, 381.000000)">
                    <g id="icon-/-spotlight" transform="translate(108.000000, 0.000000)">
                        <g transform="translate(5.097656, 0.000000)">
                            <path d="M70.1457891,21.1835938 L58.4106445,26.8135313 L58.4106445,29.8203125 L55.8618164,29.8203125 L55.8618164,26.3398438 C55.8618164,23.4966875 53.5750078,21.1835938 50.7641602,21.1835938 L47.3232422,21.1835938 L47.3232422,18.6054688 L50.2956855,18.6054688 L55.8618164,6.7354375 L55.8618164,0 L46.9410879,0 L46.9410879,2.578125 L53.3129883,2.578125 L53.3129883,6.1551875 L48.6838066,16.0273438 L28.1208809,16.0273438 L23.4916992,6.1551875 L23.4916992,2.578125 L44.3920898,2.578125 L44.3920898,0 L20.9428711,0 L20.9428711,6.73560937 L26.509002,18.6056406 L29.4814453,18.6056406 L29.4814453,21.1837656 L26.0405273,21.1837656 C23.2296797,21.1837656 20.9428711,23.4968594 20.9428711,26.3400156 L20.9428711,29.8204844 L18.394043,29.8204844 L18.394043,26.8137031 L6.65889844,21.1835937 L0,21.1835937 L0,56.5039062 L6.65889844,56.5039062 L18.394043,50.8739688 L18.394043,47.8671875 L20.9428711,47.8671875 L20.9428711,51.3476562 C20.9428711,54.1908125 23.2296797,56.5039062 26.0405273,56.5039062 L29.4814453,56.5039062 L29.4814453,59.0820312 L26.509002,59.0820312 L20.9428711,70.9520625 L20.9428711,77.6875 L55.8618164,77.6875 L55.8618164,70.9518906 L50.2956855,59.0818594 L47.3232422,59.0818594 L47.3232422,56.5037344 L50.7641602,56.5037344 C53.5750078,56.5037344 55.8618164,54.1906406 55.8618164,51.3474844 L55.8618164,47.8671875 L58.4106445,47.8671875 L58.4106445,50.8739687 L70.1457891,56.5039062 L76.8046875,56.5039062 L76.8046875,21.1835937 L70.1457891,21.1835938 Z M18.394043,45.2890625 L18.394043,40.1328125 L15.8452148,40.1328125 L15.8452148,49.2432187 L6.08524219,53.9257812 L2.54882812,53.9257812 L2.54882812,23.7617188 L6.08524219,23.7617188 L15.8452148,28.4441094 L15.8452148,37.5546875 L18.394043,37.5546875 L18.394043,32.3984375 L20.9428711,32.3984375 L20.9428711,45.2890625 L18.394043,45.2890625 Z M53.3129883,71.5323125 L53.3129883,75.109375 L23.4916992,75.109375 L23.4916992,71.5323125 L28.1208809,61.6601562 L48.6838066,61.6601562 L53.3129883,71.5323125 Z M53.3129883,51.3476562 C53.3129883,52.7692344 52.169584,53.9257812 50.7641602,53.9257812 L39.6769277,53.9257812 L39.6769277,56.5039062 L44.7744141,56.5039062 L44.7744141,59.0820312 L32.0302734,59.0820312 L32.0302734,56.5039062 L37.1279297,56.5039062 L37.1279297,53.9257812 L26.0405273,53.9257812 C24.6351035,53.9257812 23.4916992,52.7692344 23.4916992,51.3476562 L23.4916992,26.3398438 C23.4916992,24.9182656 24.6351035,23.7617188 26.0405273,23.7617188 L37.1279297,23.7617188 L37.1279297,21.1835938 L32.0302734,21.1835938 L32.0302734,18.6054688 L44.7744141,18.6054688 L44.7744141,21.1835938 L39.6769277,21.1835938 L39.6769277,23.7617188 L50.7641602,23.7617188 C52.169584,23.7617188 53.3129883,24.9182656 53.3129883,26.3398438 L53.3129883,51.3476562 Z M74.2558594,53.9257812 L70.7194453,53.9257812 L60.9594727,49.2433906 L60.9594727,40.1328125 L58.4106445,40.1328125 L58.4106445,45.2890625 L55.8618164,45.2890625 L55.8618164,32.3984375 L58.4106445,32.3984375 L58.4106445,37.5546875 L60.9594727,37.5546875 L60.9594727,28.4442813 L70.7194453,23.7618906 L74.2558594,23.7618906 L74.2558594,53.9257812 Z" id="Shape" fill-rule="nonzero"></path>
                            <path d="M38.4023438,26.3828125 C35.4990586,26.3828125 32.6792051,27.4248906 30.4622344,29.3168906 L32.1060586,31.2872656 C33.8637305,29.7871406 36.0997324,28.9609375 38.4023438,28.9609375 C43.7898867,28.9609375 48.1728516,33.3942813 48.1728516,38.84375 C48.1728516,44.2932188 43.7898867,48.7265625 38.4023438,48.7265625 C33.0148008,48.7265625 28.6318359,44.2932188 28.6318359,38.84375 C28.6318359,36.6990937 29.2992891,34.6597969 30.5616387,32.9460313 L28.5179883,31.4055156 C26.9249707,33.567875 26.0830078,36.1399844 26.0830078,38.84375 C26.0830078,45.7147969 31.609377,51.3046875 38.4023438,51.3046875 C45.1953105,51.3046875 50.7216797,45.7147969 50.7216797,38.84375 C50.7216797,31.9727031 45.1953105,26.3828125 38.4023438,26.3828125 Z" id="Path" fill-rule="nonzero"></path>
                            <path d="M38.4023438,46.1484375 C42.3844629,46.1484375 45.6240234,42.8716406 45.6240234,38.84375 C45.6240234,37.1952969 45.0651504,35.5788125 44.050377,34.2919844 L42.0577031,35.8997031 C42.7232871,36.7437812 43.0750254,37.7617969 43.0750254,38.84375 C43.0750254,41.4500625 40.9788691,43.5703125 38.4021738,43.5703125 L38.4021738,46.1484375 L38.4023438,46.1484375 Z" id="Path" fill-rule="nonzero"></path>
                            <path d="M38.4023438,31.5390625 L38.4023438,34.1171875 C39.145752,34.1171875 39.8560254,34.2882031 40.5131133,34.6255938 L41.6667129,32.3267656 C40.6631543,31.8114844 39.5343633,31.5390625 38.4023438,31.5390625 Z" id="Path" fill-rule="nonzero"></path>
                            <polygon id="Path" fill-rule="nonzero" points="39.6767578 85.421875 37.1279297 85.421875 37.1279297 80.265625 34.5791016 80.265625 34.5791016 88 42.2255859 88 42.2255859 80.265625 39.6767578 80.265625"></polygon>
                            <polygon id="Path" fill-rule="nonzero" points="69.158373 27.6289062 71.7072012 27.6289062 71.7072012 30.2070312 69.158373 30.2070312"></polygon>
                            <polygon id="Path" fill-rule="nonzero" points="69.158373 32.7851562 71.7072012 32.7851562 71.7072012 35.3632812 69.158373 35.3632812"></polygon>
                            <polygon id="Path" fill-rule="nonzero" points="5.09765625 47.4804688 7.64648438 47.4804688 7.64648438 50.0585938 5.09765625 50.0585938"></polygon>
                            <polygon id="Path" fill-rule="nonzero" points="5.09765625 42.3242188 7.64648438 42.3242188 7.64648438 44.9023438 5.09765625 44.9023438"></polygon>
                            <polygon id="Path" fill-rule="nonzero" points="46.940918 69.9532969 49.4897461 69.9532969 49.4897461 72.5314219 46.940918 72.5314219"></polygon>
                            <polygon id="Path" fill-rule="nonzero" points="41.8432617 69.9532969 44.3920898 69.9532969 44.3920898 72.5314219 41.8432617 72.5314219"></polygon>
                            <polygon id="Path" fill-rule="nonzero" points="27.3149414 5.15625 29.8637695 5.15625 29.8637695 7.734375 27.3149414 7.734375"></polygon>
                            <polygon id="Path" fill-rule="nonzero" points="32.4125977 5.15625 34.9614258 5.15625 34.9614258 7.734375 32.4125977 7.734375"></polygon>
                        </g>
                    </g>
                </g>
            </g>
        </g>
    </g>
</svg>