<?xml version="1.0" encoding="UTF-8"?>
<svg width="512px" height="512px" viewBox="0 0 512 512" version="1.1" xmlns="http://www.w3.org/2000/svg" xmlns:xlink="http://www.w3.org/1999/xlink">
    <g id="icon-/-photo-camera" stroke="none" stroke-width="1" fill="none" fill-rule="evenodd">
        <g transform="translate(0.000000, 61.000000)" fill="#000000" fill-rule="nonzero">
            <polygon id="Path" points="199.5 37.5 312.5 37.5 312.5 52.5 199.5 52.5"></polygon>
            <polygon id="Path" points="429.5 375 444.5 375 444.5 390 429.5 390"></polygon>
            <path d="M489.5,75 L482,75 L482,67.5 C482,55.094 471.907,45 459.501,45 L429.5,45 C417.094,45 407,55.093 407,67.499 L407,74.999 L386.198,74.999 L365.523,19.865 C363.485,14.433 358.073,0 343.5,0 L213.5,0 L213.5,15 L343.5,15 C345.521,15 347.972,15.783 351.478,25.133 L370.178,75 L141.822,75 L160.522,25.132 C164.027,15.783 166.479,15 168.5,15 L198.499,15 L198.499,0 L168.5,0 C153.926,0 148.515,14.433 146.478,19.866 L125.802,75 L105,75 L105,67.5 C105,55.094 94.906,45 82.5,45 L52.499,45 C40.093,45 30,55.094 30,67.5 L30,75 L22.5,75 C10.094,75 -5.68434189e-14,85.093 -5.68434189e-14,97.5 L-5.68434189e-14,367.5 C-5.68434189e-14,379.907 10.094,390 22.5,390 L414.5,390 L414.5,375 L22.5,375 C18.364,375 15,371.636 15,367.5 L15,181.833 L146.247,181.833 C139.1,197.253 135.102,214.417 135.102,232.5 C135.102,299.163 189.336,353.397 255.999,353.397 C278.472,353.397 299.528,347.226 317.574,336.501 L325.576,344.503 C331.225,350.152 338.76,353.263 346.79,353.263 C354.821,353.263 362.354,350.152 368.002,344.503 C373.651,338.855 376.763,331.321 376.763,323.29 C376.763,315.259 373.652,307.726 368.003,302.077 L360.001,294.075 C370.726,276.029 376.897,254.973 376.897,232.5 C376.897,214.417 372.899,197.253 365.752,181.833 L497,181.833 L497,367.5 C497,371.635 493.636,375 489.5,375 L459.5,375 L459.5,390 L489.5,390 C501.906,390 512,379.907 512,367.5 L512,97.5 C512,85.093 501.906,75 489.5,75 Z M467,67.5 L467,75 L452,75 L452,60 L459.501,60 C463.636,60 467,63.364 467,67.5 Z M422,67.5 C422,63.365 425.364,60.001 429.5,60.001 L437,60.001 L437,75.001 L422,75.001 L422,67.5 Z M45,67.5 C45,63.365 48.364,60.001 52.499,60.001 L82.5,60.001 C86.636,60.001 90,63.365 90,67.5 L90,75 L45,75 L45,67.5 Z M357.397,312.684 C360.212,315.5 361.763,319.267 361.763,323.29 C361.763,327.313 360.212,331.081 357.396,333.897 C354.581,336.712 350.814,338.263 346.791,338.263 C342.767,338.263 339,336.713 336.185,333.897 L330.183,327.895 C338.098,321.726 345.227,314.597 351.396,306.682 L357.397,312.684 Z M256,338.397 C197.607,338.397 150.103,290.892 150.103,232.5 C150.103,174.108 197.608,126.603 256,126.603 C314.392,126.603 361.897,174.108 361.897,232.5 C361.897,290.892 314.393,338.397 256,338.397 Z M357.461,166.833 C335.89,133.618 298.47,111.603 256,111.603 C213.53,111.603 176.11,133.619 154.539,166.833 L15,166.833 L15,97.5 C15,93.365 18.364,90 22.5,90 L489.5,90 C493.636,90 497,93.364 497,97.5 L497,166.833 L357.461,166.833 Z" id="Shape"></path>
            <path d="M256,141.603 C205.879,141.603 165.103,182.379 165.103,232.5 C165.103,282.621 205.879,323.397 256,323.397 C306.121,323.397 346.897,282.621 346.897,232.5 C346.897,182.379 306.121,141.603 256,141.603 Z M256,308.397 C214.15,308.397 180.103,274.35 180.103,232.5 C180.103,190.65 214.15,156.603 256,156.603 C297.85,156.603 331.897,190.65 331.897,232.5 C331.897,274.35 297.85,308.397 256,308.397 Z" id="Shape"></path>
            <polygon id="Path" points="437 105 452 105 452 120 437 120"></polygon>
            <polygon id="Path" points="467 105 482 105 482 120 467 120"></polygon>
        </g>
    </g>
</svg>