<?xml version="1.0" encoding="UTF-8" standalone="no"?>
<!DOCTYPE svg PUBLIC "-//W3C//DTD SVG 1.1//EN" "http://www.w3.org/Graphics/SVG/1.1/DTD/svg11.dtd">
<svg width="100%" height="100%" viewBox="0 0 512 512" version="1.1" xmlns="http://www.w3.org/2000/svg" xmlns:xlink="http://www.w3.org/1999/xlink" xml:space="preserve" xmlns:serif="http://www.serif.com/" style="fill-rule:evenodd;clip-rule:evenodd;stroke-linejoin:round;stroke-miterlimit:2;">
    <g id="Symbols">
        <g id="icon---telepresence" serif:id="icon-/-telepresence">
            <g>
                <path id="Path" d="M512,392.001L512,62L0,62L0,122L15,122L15,77L497,77L497,362.002L15,362.002L15,137L0,137L0,437.001L189.344,437.001L179.344,467L145.145,467L133.895,512L316,512L316,497L153.105,497L156.855,482L355.145,482L358.895,497L331.001,497L331.001,512L378.105,512L366.855,467L332.657,467L322.657,437.001L512,437.001L512,407.001L497,407.001L497,422.001L263.5,422.001L263.5,437.001L306.845,437.001L316.845,467L195.156,467L205.156,437.001L248.5,437.001L248.5,422.001L15,422.001L15,377.002L497,377.002L497,392.001L512,392.001Z" style="fill-rule:nonzero;"/>
                <path id="Path1" serif:id="Path" d="M37.5,392.001L82.5,392.001L82.5,407.001L37.5,407.001L37.5,392.001Z" style="fill-rule:nonzero;"/>
                <path id="Path2" serif:id="Path" d="M97.5,392.001L112.5,392.001L112.5,407.001L97.5,407.001L97.5,392.001Z" style="fill-rule:nonzero;"/>
                <path id="Path3" serif:id="Path" d="M248.5,392.001L263.5,392.001L263.5,407.001L248.5,407.001L248.5,392.001Z" style="fill-rule:nonzero;"/>
                <path id="Path4" serif:id="Path" d="M248.5,31L263.5,31L263.5,46L248.5,46L248.5,31Z" style="fill-rule:nonzero;"/>
                <path id="Path5" serif:id="Path" d="M232.5,22.5C232.5,18.364 235.864,15 240,15L272,15C276.136,15 279.5,18.364 279.5,22.5L279.5,54.501L294.5,54.501L294.5,22.5C294.5,10.094 284.406,0 272,0L240,0C227.594,0 217.5,10.094 217.5,22.5L217.5,54.501L232.5,54.501L232.5,22.5Z" style="fill-rule:nonzero;"/>
            </g>
            <g transform="matrix(0.865361,0,0,0.865361,29.9968,-77.0828)">
                <path d="M68.058,391.152L81.048,398.652L94.071,376.095L107.094,398.652L120.084,391.152L101.57,359.086L101.57,300.95L140.165,320.247L140.165,416.903L265.757,474.03L391.349,416.903L391.349,320.247L454.275,288.784L265.758,195.39L77.239,288.784L86.571,293.45L86.571,359.086L68.058,391.152ZM265.758,212.13L420.612,288.846L344.198,327.053L350.907,340.469L376.35,327.747L376.35,407.247L265.758,457.552L155.166,407.247L155.166,327.747L265.758,383.043L310.657,360.593L303.948,347.177L265.758,366.272L110.904,288.845L265.758,212.13Z" style="fill-rule:nonzero;"/>
            </g>
        </g>
    </g>
</svg>
