<?xml version="1.0" encoding="UTF-8"?>
<svg width="512px" height="512px" viewBox="0 0 512 512" version="1.1" xmlns="http://www.w3.org/2000/svg" xmlns:xlink="http://www.w3.org/1999/xlink">
    <!-- Generator: Sketch 60.1 (88133) - https://sketch.com -->
    <title>icon / lecture</title>
    <desc>Created with Sketch.</desc>
    <g id="icon-/-lecture" stroke="none" stroke-width="1" fill="none" fill-rule="evenodd">
        <g transform="translate(46.000000, 0.000000)" fill="#000000" fill-rule="nonzero">
            <path d="M373.135,404.47 L389.999,387.606 L389.999,329.999 C389.999,317.593 379.906,307.499 367.5,307.499 L329.999,307.499 L329.999,277.499 L359.999,277.499 L359.999,232.499 L322.499,232.499 L322.499,151.843 L242.114,128.875 L237.331,114.525 L258.75,93.106 L258.75,5.68434189e-14 L183.75,5.68434189e-14 C171.344,5.68434189e-14 161.25,10.093 161.25,22.5 L161.25,93.106 L182.669,114.525 L177.886,128.875 L97.5,151.843 L97.5,232.499 L60.001,232.499 L60.001,277.499 L90,277.499 L90,307.499 L52.5,307.499 C40.094,307.499 30.001,317.592 30.001,329.999 L30.001,387.606 L46.865,404.47 L-2.84217094e-14,424.554 L-2.84217094e-14,511.999 L337.498,511.999 L337.498,496.999 L285,496.999 L285,434.445 L331.538,414.5 L358.46,414.5 L404.999,434.445 L404.999,496.999 L352.499,496.999 L352.499,511.999 L419.999,511.999 L419.999,424.554 L373.135,404.47 Z M307.499,163.157 L307.499,232.499 L277.5,232.499 L277.5,202.499 L262.5,202.499 L262.5,232.499 L238.08,232.499 L218.375,166.817 L238.762,143.517 L307.499,163.157 Z M196.655,120 L223.343,120 L227.775,133.295 L210,153.61 L192.224,133.294 L196.655,120 Z M222.419,232.499 L197.579,232.499 L210,191.1 L222.419,232.499 Z M183.75,15 L243.75,15 L243.75,49.845 L202.02,37.006 L176.25,48.459 L176.25,22.5 C176.25,18.364 179.614,15 183.75,15 Z M176.25,64.874 L202.979,52.995 L243.75,65.54 L243.75,86.894 L225.642,105 L194.356,105 L176.25,86.893 L176.25,64.874 Z M112.5,163.157 L181.237,143.517 L201.624,166.817 L181.919,232.499 L157.5,232.499 L157.5,202.499 L142.5,202.499 L142.5,232.499 L112.5,232.499 L112.5,163.157 Z M202.5,277.499 L202.5,262.499 L75.001,262.499 L75.001,247.499 L344.998,247.499 L344.998,262.499 L217.5,262.499 L217.5,277.499 L314.999,277.499 L314.999,308.789 C306.27,311.885 299.999,320.221 299.999,329.998 L299.999,387.605 L316.863,404.469 L277.5,421.34 L238.136,404.47 L255,387.605 L255,329.998 C255,317.592 244.906,307.498 232.5,307.498 L187.5,307.498 C175.094,307.498 165,317.591 165,329.998 L165,387.605 L181.864,404.469 L142.5,421.34 L103.137,404.47 L120,387.605 L120,329.998 C120,320.221 113.729,311.885 105,308.789 L105,277.499 L202.5,277.499 Z M180,381.393 L180,329.998 C180,325.863 183.364,322.498 187.5,322.498 L232.5,322.498 C236.636,322.498 240,325.862 240,329.998 L240,381.393 L221.893,399.5 L198.106,399.5 L180,381.393 Z M45,329.998 C45,325.863 48.364,322.498 52.499,322.498 L97.5,322.498 C101.636,322.498 105,325.862 105,329.998 L105,381.393 L86.894,399.5 L63.107,399.5 L45,381.393 L45,329.998 Z M135,496.999 L15,496.999 L15,434.445 L61.54,414.5 L88.462,414.5 L135,434.445 L135,496.999 Z M150,496.999 L150,434.445 L196.539,414.5 L223.461,414.5 L270,434.445 L270,496.999 L150,496.999 Z M333.105,399.5 L314.999,381.393 L314.999,329.998 C314.999,325.863 318.363,322.498 322.499,322.498 L367.5,322.498 C371.635,322.498 374.999,325.862 374.999,329.998 L374.999,381.393 L356.892,399.5 L333.105,399.5 Z" id="Shape"></path>
            <polygon id="Path" points="270 292.499 285 292.499 285 307.499 270 307.499"></polygon>
        </g>
    </g>
</svg>