<?xml version="1.0" encoding="UTF-8"?>
<svg width="512px" height="512px" viewBox="0 0 512 512" version="1.1" xmlns="http://www.w3.org/2000/svg" xmlns:xlink="http://www.w3.org/1999/xlink">
    <!-- Generator: Sketch 60.1 (88133) - https://sketch.com -->
    <title>icon / image-1</title>
    <desc>Created with Sketch.</desc>
    <g id="icon-/-image-1" stroke="none" stroke-width="1" fill="none" fill-rule="evenodd">
        <g transform="translate(0.000000, 91.000000)" fill="#000000" fill-rule="nonzero">
            <polygon id="Path" points="60.004 60.195 75.004 60.195 75.004 75.195 60.004 75.195"></polygon>
            <polygon id="Path" points="90.003 60.195 105.003 60.195 105.003 75.195 90.003 75.195"></polygon>
            <polygon id="Path" points="452.017 0.004 452.017 15.004 497 15.004 497 60.035 512 60.035 512 0.004"></polygon>
            <polygon id="Path" points="497 314.997 452.017 314.996 452.017 329.996 512 329.997 512 270.03 497 270.03"></polygon>
            <polygon id="Path" points="15 270.03 0 270.03 0.001 329.997 60.004 329.996 60.004 314.996 15.001 314.997"></polygon>
            <polygon id="Path" points="15.001 15.004 60.004 15.003 60.004 0.003 0.001 0.005 0.001 60.035 15.001 60.035"></polygon>
            <polygon id="Path" points="407.018 285.062 422.018 285.062 422.018 300.062 407.018 300.062"></polygon>
            <polygon id="Path" points="44.974 214.54 180.852 114.44 194.078 124.726 203.286 112.886 181.098 95.628 44.974 195.909 44.974 120.034 29.974 120.034 29.974 300.061 392.018 300.061 392.018 285.062 44.974 285.062"></polygon>
            <polygon id="Path" points="437.017 285.062 437.017 300.061 482.027 300.061 482.027 30.036 29.974 30.036 29.974 105.034 44.974 105.034 44.974 45.035 467.027 45.035 467.027 195.333 398.09 140.603 316.108 200.636 216.596 123.238 207.387 135.078 315.837 219.427 397.722 159.463 467.027 214.485 467.027 285.062"></polygon>
            <path d="M345.993,120.034 C345.993,103.481 332.526,90.013 315.972,90.013 C299.419,90.013 285.951,103.48 285.951,120.034 C285.951,136.588 299.418,150.055 315.972,150.055 C332.526,150.054 345.993,136.587 345.993,120.034 Z M300.951,120.034 C300.951,111.751 307.689,105.013 315.972,105.013 C324.255,105.013 330.993,111.751 330.993,120.034 C330.993,128.317 324.255,135.055 315.972,135.055 C307.689,135.055 300.951,128.316 300.951,120.034 Z" id="Shape"></path>
        </g>
    </g>
</svg>