<?xml version="1.0" encoding="UTF-8"?>
<svg viewBox="0 0 87 87" version="1.1" xmlns="http://www.w3.org/2000/svg" xmlns:xlink="http://www.w3.org/1999/xlink">
    <g id="Wireframes" stroke="none" stroke-width="1" fill="none" fill-rule="evenodd">
        <g id="Mobile" transform="translate(-111.000000, -2058.000000)" fill="#000000">
            <g id="Why-Us-Copy" transform="translate(0.000000, 1386.000000)">
                <g id="Container-3" transform="translate(10.000000, 672.000000)">
                    <g id="icon-/-feedback" transform="translate(101.000000, 0.000000)">
                        <g id="Path">
                            <polygon fill-rule="nonzero" points="2.54882812 79.3535156 19.9658203 79.3535156 19.9658203 76.8046875 0 76.8046875 0 87 64.4853516 87 64.4853516 84.4511719 2.54882812 84.4511719"></polygon>
                            <polygon fill-rule="nonzero" points="22.5146484 76.8046875 22.5146484 79.3535156 84.4511719 79.3535156 84.4511719 84.4511719 67.0341797 84.4511719 67.0341797 87 87 87 87 76.8046875"></polygon>
                            <path d="M5.09765625,68.6786836 L5.09765625,74.2558594 L7.64648438,74.2558594 L7.64648438,68.6786836 C7.64648438,66.8041055 8.22897656,65.0068418 9.33091992,63.4807734 L7.26466992,61.9886895 C5.8468418,63.951457 5.09765625,66.2649434 5.09765625,68.6786836 Z" fill-rule="nonzero"></path>
                            <path d="M37.3828125,74.2558594 L37.3828125,68.6786836 C37.3828125,62.3541914 32.2375781,57.208957 25.9130859,57.208957 L16.5673828,57.208957 C13.887375,57.208957 11.2749961,58.1628984 9.21129492,59.8949121 L10.8498516,61.8473145 C12.4551035,60.499834 14.4856699,59.7577852 16.5673828,59.7577852 L25.9130859,59.7577852 C30.8321543,59.7577852 34.8339844,63.7597852 34.8339844,68.6786836 L34.8339844,74.2558594 L37.3828125,74.2558594 Z" fill-rule="nonzero"></path>
                            <path d="M32.2851562,71.2275117 L32.2851562,68.6786836 C32.2851562,65.1650391 29.4267305,62.3066133 25.9130859,62.3066133 L25.9130859,64.8554414 C27.9854531,64.8554414 29.7363281,66.6063164 29.7363281,68.6786836 L29.7363281,71.2275117 L32.2851562,71.2275117 Z" fill-rule="nonzero"></path>
                            <polygon fill-rule="nonzero" points="20.8154297 62.3066133 23.3642578 62.3066133 23.3642578 64.8554414 20.8154297 64.8554414"></polygon>
                            <path d="M21.2402344,36.818502 C24.712418,36.818502 27.5100117,39.5355527 27.609416,43.004168 L30.1572246,42.9311016 C30.0904453,40.602832 29.1334453,38.4246035 27.4620938,36.7976016 C25.7875137,35.1673711 23.5778496,34.2695039 21.2402344,34.2695039 C16.321166,34.2695039 12.3193359,38.2715039 12.3193359,43.1904023 L12.3193359,49.9549922 L18.2470605,54.6601289 L24.2334082,54.6601289 L30.1611328,49.9549922 L30.1611328,45.516293 L27.6123047,45.516293 L27.6123047,48.7240781 L23.3447168,52.1114707 L19.135582,52.1114707 L14.8681641,48.7240781 L14.8681641,43.1905723 C14.8681641,39.6769277 17.7265898,36.818502 21.2402344,36.818502 L21.2402344,36.818502 Z" fill-rule="nonzero"></path>
                            <path d="M81.9023438,74.2558594 L81.9023438,68.6786836 C81.9023438,62.3541914 76.7571094,57.208957 70.4326172,57.208957 L61.0869141,57.208957 C58.403168,57.208957 55.7880703,58.1651074 53.7233496,59.9013691 L55.3637754,61.8520723 C56.969877,60.5015332 59.0023125,59.7577852 61.0869141,59.7577852 L70.4326172,59.7577852 C75.3515156,59.7577852 79.3535156,63.7597852 79.3535156,68.6786836 L79.3535156,74.2558594 L81.9023438,74.2558594 Z" fill-rule="nonzero"></path>
                            <path d="M52.1660156,68.6786836 C52.1660156,66.8064844 52.7471484,65.0110898 53.846543,63.4863809 L51.7792734,61.9956563 C50.3646738,63.9570645 49.6171875,66.268002 49.6171875,68.6786836 L49.6171875,74.2558594 L52.1660156,74.2558594 L52.1660156,68.6786836 Z" fill-rule="nonzero"></path>
                            <path d="M56.8388672,45.516293 L56.8388672,49.9549922 L62.7667617,54.6601289 L68.7529395,54.6601289 L74.680834,49.9549922 L74.680834,43.1904023 C74.680834,38.2715039 70.678834,34.2695039 65.7599355,34.2695039 C63.4223203,34.2695039 61.2128262,35.1673711 59.5382461,36.7976016 C57.8668945,38.4244336 56.9097246,40.602832 56.8431152,42.9311016 L59.3909238,43.004168 C59.4901582,39.5355527 62.2879219,36.818502 65.7599355,36.818502 C69.2735801,36.818502 72.1320059,39.6769277 72.1320059,43.1905723 L72.1320059,48.7240781 L67.8645879,52.1114707 L63.6554531,52.1114707 L59.3876953,48.7240781 L59.3876953,45.516293 L56.8388672,45.516293 Z" fill-rule="nonzero"></path>
                            <polygon fill-rule="nonzero" points="39.6767578 5.09748633 42.2255859 5.09748633 42.2255859 7.64648438 39.6767578 7.64648438"></polygon>
                            <polygon fill-rule="nonzero" points="16.9284668 7.52889844 35.6623535 7.52889844 35.6623535 10.0777266 16.9284668 10.0777266"></polygon>
                            <polygon fill-rule="nonzero" points="11.8308105 7.52889844 14.3796387 7.52889844 14.3796387 10.0777266 11.8308105 10.0777266"></polygon>
                            <path d="M76.8046875,71.2275117 L76.8046875,68.6786836 C76.8046875,65.1650391 73.9462617,62.3066133 70.4326172,62.3066133 L70.4326172,64.8554414 C72.5049844,64.8554414 74.2558594,66.6063164 74.2558594,68.6786836 L74.2558594,71.2275117 L76.8046875,71.2275117 Z" fill-rule="nonzero"></path>
                            <polygon fill-rule="nonzero" points="65.3349609 62.3066133 67.8837891 62.3066133 67.8837891 64.8554414 65.3349609 64.8554414"></polygon>
                            <path d="M6.54199219,17.6064551 L21.2402344,17.6064551 L21.2402344,29.603959 L33.2379082,17.6064551 L40.9511719,17.6064551 C44.4648164,17.6064551 47.3232422,14.7480293 47.3232422,11.2343848 L47.3232422,6.37207031 C47.3232422,2.85842578 44.4648164,1.42108547e-14 40.9511719,1.42108547e-14 L15.4628906,1.42108547e-14 L15.4628906,2.54882813 L40.9511719,2.54882813 C43.0593926,2.54882813 44.7744141,4.26401953 44.7744141,6.37207031 L44.7744141,11.2343848 C44.7744141,13.3424355 43.0593926,15.057627 40.9511719,15.057627 L32.1821836,15.057627 L23.7890625,23.450748 L23.7890625,15.057627 L6.54199219,15.057627 C4.43377148,15.057627 2.71875,13.3424355 2.71875,11.2343848 L2.71875,6.37207031 C2.71875,4.26401953 4.43394141,2.54882813 6.54199219,2.54882813 L12.9140625,2.54882813 L12.9140625,1.42108547e-14 L6.54199219,1.42108547e-14 C3.02851758,1.42108547e-14 0.169921875,2.85842578 0.169921875,6.37207031 L0.169921875,11.2343848 C0.169921875,14.7480293 3.02851758,17.6064551 6.54199219,17.6064551 Z" fill-rule="nonzero"></path>
                            <path d="M46.0488281,22.5865254 C44.4551309,22.5865254 43.0121543,21.5763398 42.458209,20.0725313 L40.0665586,20.9534063 C40.9236445,23.2803164 43.0636406,24.8969531 45.496752,25.1112246 L57.5185547,37.1330273 L57.5185547,25.1355234 L71.5371094,25.1355234 L71.5371094,22.5866953 L54.9697266,22.5866953 L54.9697266,30.9798164 L46.5766055,22.5866953 L46.0488281,22.5866953 L46.0488281,22.5865254 Z" fill-rule="nonzero"></path>
                            <path d="M84.28125,13.9009688 L84.28125,18.7632832 C84.28125,20.871334 82.5660586,22.5865254 80.4580078,22.5865254 L74.0859375,22.5865254 L74.0859375,25.1353535 L80.4580078,25.1353535 C83.9716523,25.1353535 86.8300781,22.2769277 86.8300781,18.7632832 L86.8300781,13.9009688 C86.8300781,10.3873242 83.9716523,7.52889844 80.4580078,7.52889844 L49.8720703,7.52889844 L49.8720703,10.0777266 L80.4580078,10.0777266 C82.5660586,10.0777266 84.28125,11.792748 84.28125,13.9009688 Z" fill-rule="nonzero"></path>
                            <polygon fill-rule="nonzero" points="79.172209 12.6263848 81.7210371 12.6263848 81.7210371 15.1752129 79.172209 15.1752129"></polygon>
                            <polygon fill-rule="nonzero" points="51.3376465 15.057627 53.8864746 15.057627 53.8864746 17.6064551 51.3376465 17.6064551"></polygon>
                            <polygon fill-rule="nonzero" points="56.4353027 15.057627 75.1691895 15.057627 75.1691895 17.6064551 56.4353027 17.6064551"></polygon>
                        </g>
                    </g>
                </g>
            </g>
        </g>
    </g>
</svg>