<?xml version="1.0" encoding="UTF-8"?>
<svg width="512px" height="512px" viewBox="0 0 512 512" version="1.1" xmlns="http://www.w3.org/2000/svg" xmlns:xlink="http://www.w3.org/1999/xlink">
    <!-- Generator: Sketch 60.1 (88133) - https://sketch.com -->
    <title>icon / telepresence</title>
    <desc>Created with Sketch.</desc>
    <g id="Symbols" stroke="none" stroke-width="1" fill="none" fill-rule="evenodd">
        <g id="icon-/-telepresence" fill="#000000" fill-rule="nonzero">
            <g>
                <polygon id="Path" points="512 392.001 512 62 0 62 0 122 15 122 15 77 497 77 497 362.002 15 362.002 15 137 0 137 0 437.001 189.344 437.001 179.344 467 145.145 467 133.895 512 316 512 316 497 153.105 497 156.855 482 355.145 482 358.895 497 331.001 497 331.001 512 378.105 512 366.855 467 332.657 467 322.657 437.001 512 437.001 512 407.001 497 407.001 497 422.001 263.5 422.001 263.5 437.001 306.845 437.001 316.845 467 195.156 467 205.156 437.001 248.5 437.001 248.5 422.001 15 422.001 15 377.002 497 377.002 497 392.001"></polygon>
                <polygon id="Path" points="37.5 392.001 82.5 392.001 82.5 407.001 37.5 407.001"></polygon>
                <polygon id="Path" points="97.5 392.001 112.5 392.001 112.5 407.001 97.5 407.001"></polygon>
                <polygon id="Path" points="372.75 279.502 387.75 279.502 387.75 294.502 372.75 294.502"></polygon>
                <polygon id="Path" points="124.25 279.502 139.25 279.502 139.25 294.502 124.25 294.502"></polygon>
                <polygon id="Path" points="467 122 482 122 482 167 467 167"></polygon>
                <polygon id="Path" points="467 92 482 92 482 107 467 107"></polygon>
                <polygon id="Path" points="248.5 392.001 263.5 392.001 263.5 407.001 248.5 407.001"></polygon>
                <polygon id="Path" points="248.5 31 263.5 31 263.5 46 248.5 46"></polygon>
                <polygon id="Path" points="176.75 326.73 191.75 326.73 191.75 349.23 176.75 349.23"></polygon>
                <polygon id="Path" points="71.75 326.73 86.75 326.73 86.75 349.23 71.75 349.23"></polygon>
                <path d="M34.251,347.002 L49.251,347.002 L49.251,285.082 L117.851,264.502 L145.65,264.502 L214.25,285.082 L214.25,347.002 L229.25,347.002 L229.25,273.922 L160.933,253.427 L176.751,237.609 L176.751,167.003 C176.751,154.597 166.657,144.503 154.251,144.503 L86.751,144.503 L86.751,237.609 L102.569,253.427 L34.251,273.922 L34.251,347.002 L34.251,347.002 Z M101.75,159.502 L154.25,159.502 C158.386,159.502 161.75,162.866 161.75,167.002 L161.75,174.502 L101.75,174.502 L101.75,159.502 Z M101.75,189.502 L161.75,189.502 L161.75,231.396 L143.644,249.502 L119.857,249.502 L101.751,231.396 L101.751,189.502 L101.75,189.502 Z" id="Shape"></path>
                <polygon id="Path" points="320.25 326.73 335.25 326.73 335.25 349.23 320.25 349.23"></polygon>
                <polygon id="Path" points="425.25 326.73 440.25 326.73 440.25 349.23 425.25 349.23"></polygon>
                <path d="M282.751,347.002 L297.751,347.002 L297.751,285.082 L366.351,264.502 L394.15,264.502 L462.75,285.082 L462.75,347.002 L477.75,347.002 L477.75,273.922 L409.433,253.427 L425.251,237.609 L425.251,167.003 C425.251,154.597 415.157,144.503 402.751,144.503 L357.751,144.503 C345.345,144.503 335.251,154.597 335.251,167.003 L335.251,237.609 L351.069,253.427 L282.751,273.922 L282.751,347.002 L282.751,347.002 Z M350.25,167.002 C350.25,162.866 353.614,159.502 357.75,159.502 L402.75,159.502 C406.886,159.502 410.25,162.866 410.25,167.002 L410.25,174.502 L350.25,174.502 L350.25,167.002 Z M350.25,189.502 L410.25,189.502 L410.25,231.396 L392.144,249.502 L368.357,249.502 L350.251,231.396 L350.251,189.502 L350.25,189.502 Z" id="Shape"></path>
                <polygon id="Path" points="248.5 92 263.5 92 263.5 347.002 248.5 347.002"></polygon>
                <path d="M232.5,22.5 C232.5,18.364 235.864,15 240,15 L272,15 C276.136,15 279.5,18.364 279.5,22.5 L279.5,54.501 L294.5,54.501 L294.5,22.5 C294.5,10.094 284.406,0 272,0 L240,0 C227.594,0 217.5,10.094 217.5,22.5 L217.5,54.501 L232.5,54.501 L232.5,22.5 Z" id="Path"></path>
            </g>
        </g>
    </g>
</svg>